<?xml version="1.0" encoding="UTF-8"?>
<svg version="1.1" xmlns="http://www.w3.org/2000/svg" width="1024" height="1024">
<path d="M0 0 C0.66 0 1.32 0 2 0 C0.29627479 5.26104036 -1.71300246 10.36180183 -3.78125 15.48828125 C-6.52127792 23.38342581 -7.29882966 30.59949425 -7.1875 38.9375 C-7.18685547 39.88173828 -7.18621094 40.82597656 -7.18554688 41.79882812 C-7.33125596 46.55765277 -7.33125596 46.55765277 -6 51 C-5.44127197 50.90912109 -4.88254395 50.81824219 -4.30688477 50.72460938 C-1.72653217 50.3091537 0.85541338 49.90453298 3.4375 49.5 C4.31599609 49.35691406 5.19449219 49.21382813 6.09960938 49.06640625 C38.68192139 44.01674904 71.26247884 59.70571772 97.15380859 78.28369141 C100.13750931 80.47815023 103.07747924 82.72491887 106 85 C106.8765625 85.67546875 107.753125 86.3509375 108.65625 87.046875 C111.13592573 88.99519164 113.57100536 90.98889691 116 93 C117.45986328 94.18142578 117.45986328 94.18142578 118.94921875 95.38671875 C126.8711613 101.90679166 134.18885423 109.00044958 141.4375 116.25 C141.90990112 116.72149475 142.38230225 117.1929895 142.86901855 117.67877197 C148.46708845 123.27805916 153.85247236 128.98556538 159 135 C160.49570227 136.67052462 161.99504266 138.33780832 163.5 140 C166.19863082 142.98078109 168.84265663 145.99142655 171.4375 149.0625 C185.42215701 164.96724722 202.54051179 173.46573505 223 178 C221.73841399 181.44130336 220.30043417 184.23911756 218.12890625 187.1875 C217.56002686 187.96230713 216.99114746 188.73711426 216.4050293 189.53540039 C215.49297729 190.7553772 215.49297729 190.7553772 214.5625 192 C213.93577393 192.84361084 213.30904785 193.68722168 212.66333008 194.55639648 C205.27031728 204.42596052 197.30172342 213.68933369 188.97265625 222.78125 C186.91288688 225.04334207 186.91288688 225.04334207 184.87109375 227.78125 C184.25363281 228.5134375 183.63617187 229.245625 183 230 C182.34 230 181.68 230 181 230 C180.78859375 230.54527344 180.5771875 231.09054687 180.359375 231.65234375 C178.50803775 234.84962445 175.96357733 237.11092324 173.25 239.5625 C172.67580322 240.08626221 172.10160645 240.61002441 171.51000977 241.1496582 C165.78718249 246.30368991 159.79005652 251.07063787 153.66259766 255.73144531 C152.1032756 256.92120117 150.55699562 258.12799558 149.01171875 259.3359375 C141.03208653 265.49072825 132.66345384 270.87178052 124 276 C123.40380859 276.35449219 122.80761719 276.70898438 122.19335938 277.07421875 C95.93146338 292.459976 67.56156959 298.68848317 37.71386719 302.18115234 C18.85751155 304.40170507 1.1944836 308.20714253 -16.7265625 314.546875 C-19.79668778 315.62546023 -22.77317991 316.49951362 -26 317 C-24.33640852 312.89581023 -21.42228366 309.93146082 -18.4375 306.75 C-17.89665771 306.1722583 -17.35581543 305.5945166 -16.79858398 304.99926758 C-2.74640593 290.136267 13.79093884 281.35008255 32.67333984 273.96948242 C47.8799573 268.02328705 61.99238507 260.36765956 72 247 C71.34 247 70.68 247 70 247 C70 245.68 70 244.36 70 243 C68.45892578 242.27296875 68.45892578 242.27296875 66.88671875 241.53125 C42.48147197 229.81614062 25.52322605 211.86568828 10.30859375 189.87353516 C0.69493191 176.10949767 -14.24930387 155.27341735 -32 152 C-38.91385895 151.43382572 -45.84345674 151.49193195 -52 155 C-56.13523129 158.71688104 -59.39187646 163.09059099 -62 168 C-71.50391993 153.74412011 -63.94864595 121.43320428 -60.9375 105.625 C-56.95784535 86.23701746 -50.68265729 67.28907343 -41 50 C-40.38769531 48.84113281 -39.77539062 47.68226563 -39.14453125 46.48828125 C-34.29376088 37.55686281 -28.45899644 29.58922192 -22.22412109 21.58496094 C-21.27728024 20.35901542 -20.3606213 19.10972586 -19.45703125 17.8515625 C-15.95184431 13.39724987 -11.67343776 9.77501087 -7.3125 6.1875 C-6.35988281 5.39730469 -5.40726563 4.60710937 -4.42578125 3.79296875 C-2 2 -2 2 0 2 C0 1.34 0 0.68 0 0 Z M-10.3046875 82.89453125 C-14.958344 88.67407239 -16.54330903 95.76447666 -15.78515625 103.0703125 C-14.04667029 111.51438718 -9.04741329 118.17474405 -2 123 C4.03105744 126.0856573 11.76292418 125.85315063 18.30859375 124.53515625 C25.03576449 122.31899279 30.15186117 118.11964937 33.375 111.8125 C36.36262545 105.22673433 37.33480327 98.5092836 35.24609375 91.453125 C31.8930706 83.6162552 27.48568681 78.99646524 20 75 C8.37606047 71.12535349 -2.2426221 74.21595496 -10.3046875 82.89453125 Z " fill="#010101" transform="translate(610,457)"/>
<path d="M0 0 C4.46487091 1.46348547 7.72844234 3.91917131 11.25 6.9375 C11.82065186 7.42476563 12.39130371 7.91203125 12.97924805 8.4140625 C18.33046952 13.09910997 22.74718819 18.30253075 27 24 C28.01320313 25.32644531 28.01320313 25.32644531 29.046875 26.6796875 C48.4161195 52.58042143 59.94041786 83.160477 65 115 C65.11569336 115.69399902 65.23138672 116.38799805 65.35058594 117.10302734 C67.90799906 132.90662625 68.54532066 150.17686009 66 166 C65.34 166.33 64.68 166.66 64 167 C63.16121545 165.71186658 62.32913217 164.41936744 61.5 163.125 C61.0359375 162.40570312 60.571875 161.68640625 60.09375 160.9453125 C59 159 59 159 59 157 C58.42121094 156.71382812 57.84242188 156.42765625 57.24609375 156.1328125 C55.84811151 155.4277432 54.46222409 154.69743203 53.09765625 153.9296875 C46.51586159 150.51877664 40.30906639 149.78455975 33 151 C19.27597032 155.97459498 10.9102418 164.75938726 2 176 C0.50103031 177.79252875 -0.99896518 179.5842002 -2.5 181.375 C-5.66361015 185.22706418 -8.53057554 189.17720689 -11.3125 193.3125 C-27.27415058 216.75268617 -46.77871377 231.51703096 -72 244 C-69.67083064 246.67033308 -67.33656 249.33613241 -65 252 C-63.93072266 253.22203125 -63.93072266 253.22203125 -62.83984375 254.46875 C-52.16868333 265.86300753 -38.52207804 270.47126402 -24.26855469 275.92871094 C-2.89233359 284.19357131 13.01576663 296.85025031 27 315 C26.34 315.66 25.68 316.32 25 317 C24.319375 316.69707031 23.63875 316.39414062 22.9375 316.08203125 C3.63310049 307.73903944 -16.02794632 303.76227547 -36.77041626 300.93838501 C-68.21823859 296.63868342 -97.3925637 289.25036084 -125 273 C-125.59248535 272.65146973 -126.1849707 272.30293945 -126.79541016 271.94384766 C-137.11126988 265.77728784 -146.61887408 258.49037395 -156 251 C-156.59248535 250.52755859 -157.1849707 250.05511719 -157.79541016 249.56835938 C-172.01798177 238.09841122 -185.81084107 225.00791504 -197.0078125 210.55078125 C-198.93287462 208.08594681 -200.95833578 205.73314683 -203.01782227 203.38037109 C-207.58862104 198.13122334 -211.74652265 192.71962397 -215.625 186.9375 C-216.26393188 185.99052246 -216.26393188 185.99052246 -216.91577148 185.02441406 C-218.83518008 182.09531039 -220.49274683 179.50704348 -221 176 C-220.20078125 175.91363281 -219.4015625 175.82726562 -218.578125 175.73828125 C-199.48104801 173.2951106 -182.30280199 163.18260433 -170.0078125 148.36328125 C-167.27395161 145.14540996 -164.38524185 142.08194445 -161.5 139 C-157.48210187 134.69397702 -153.51273653 130.36212968 -149.65625 125.91015625 C-137.87313476 112.32066722 -125.29287914 100.2244607 -111.3203125 88.91796875 C-108.99143456 87.05443855 -108.99143456 87.05443855 -107 85 C-105.68164521 84.08226595 -104.34571777 83.18961962 -103 82.3125 C-99.74948928 80.17983528 -96.58078016 77.97448895 -93.4375 75.6875 C-72.2905941 60.87161223 -46.96913093 48.92025264 -21 47 C-19.66195312 46.89365234 -19.66195312 46.89365234 -18.296875 46.78515625 C-9.12756157 46.43357215 0.00306411 48.43369406 9 50 C9.66242942 31.5742708 7.82743295 16.93805163 0 0 Z M-28.34375 81.56640625 C-33.31281678 88.02330407 -34.90240844 94.94774009 -34 103 C-31.86363434 111.54546264 -27.5344196 117.02805845 -20.21875 121.80078125 C-14.59066408 124.84272206 -8.23751766 124.66143837 -2 124 C5.37015752 121.7691461 10.81491216 117.42254478 15 111 C18.72049414 103.8679801 18.45909843 97.25974405 16.34765625 89.6484375 C13.59064335 82.25405266 8.07803555 77.17495229 1.1875 73.5 C-10.01169658 71.74326328 -20.52429657 72.45128758 -28.34375 81.56640625 Z " fill="#010101" transform="translate(412,458)"/>
<path d="M0 0 C10.80838676 9.83950747 14.25265396 22.49070669 14.9609375 36.78515625 C15.81450052 78.15898625 -4.57885772 116.18728438 -32.57421875 145.43359375 C-34.37391744 147.24281465 -36.18632638 149.03050616 -38.0390625 150.78515625 C-34.67354446 157.75236903 -30.64710178 163.96480845 -26.0390625 170.16015625 C-25.54116211 170.83755859 -25.04326172 171.51496094 -24.53027344 172.21289062 C-22.12620161 175.38998096 -19.77908648 178.13775292 -16.6640625 180.63671875 C-15.7978125 181.34570312 -14.9315625 182.0546875 -14.0390625 182.78515625 C-14.0390625 183.44515625 -14.0390625 184.10515625 -14.0390625 184.78515625 C-20.0899929 183.61960818 -26.07372476 182.33172529 -32.0390625 180.78515625 C-32.0390625 180.12515625 -32.0390625 179.46515625 -32.0390625 178.78515625 C-32.73 178.53636719 -33.4209375 178.28757812 -34.1328125 178.03125 C-46.99971065 172.51439448 -58.53348408 162.51103191 -68.2265625 152.59765625 C-69.61875 151.20546875 -69.61875 151.20546875 -71.0390625 149.78515625 C-71.6990625 149.78515625 -72.3590625 149.78515625 -73.0390625 149.78515625 C-73.98578196 148.37890555 -74.92640655 146.96813593 -75.83447266 145.53662109 C-77.96946973 142.43235093 -80.62402232 139.81007724 -83.2265625 137.09765625 C-87.98801995 132.05345192 -92.52088668 126.91019448 -96.86328125 121.49609375 C-100.04654221 117.52987632 -103.32191628 113.641992 -106.5859375 109.7421875 C-108.85260671 107.00991267 -111.07142446 104.24470379 -113.2890625 101.47265625 C-124.93891337 87.23850748 -137.96695521 73.42429081 -153.0390625 62.78515625 C-149.95651521 57.6888846 -146.30343786 53.91039089 -141.9140625 49.91015625 C-141.24101074 49.29156738 -140.56795898 48.67297852 -139.87451172 48.03564453 C-111.13777439 21.81810382 -39.72366813 -30.05117645 0 0 Z " fill="#010101" transform="translate(814.0390625,256.21484375)"/>
<path d="M0 0 C1.03511719 0.76957031 2.07023438 1.53914063 3.13671875 2.33203125 C9.39212569 7.03957676 15.33864853 11.94384782 21.07421875 17.28515625 C22.89392569 19.05563939 22.89392569 19.05563939 25 20 C25 20.66 25 21.32 25 22 C26.32 22.66 27.64 23.32 29 24 C29 24.66 29 25.32 29 26 C29.639375 26.268125 30.27875 26.53625 30.9375 26.8125 C33 28 33 28 34 31 C34.66 31 35.32 31 36 31 C34.71881934 34.84354198 33.12403844 35.54671054 29.8125 37.8125 C26.42320796 40.19380778 23.29997707 42.50223172 20.4375 45.5 C19.633125 46.325 18.82875 47.15 18 48 C17.34 48 16.68 48 16 48 C15.66162109 48.83337891 15.66162109 48.83337891 15.31640625 49.68359375 C13.61105586 52.68440319 11.43293684 54.67937537 8.9375 57.0625 C4.38045642 61.50174042 0.28417654 66.13840726 -3.6875 71.1171875 C-6.23620431 74.2944574 -8.85855055 77.39992126 -11.5 80.5 C-14.83662834 84.42355332 -18.13272377 88.37262971 -21.375 92.375 C-31.31685695 104.54185513 -41.65004729 116.12498765 -53 127 C-53.71542969 127.68578125 -54.43085938 128.3715625 -55.16796875 129.078125 C-67.71487105 140.52817656 -82.79441878 149.7826752 -99 155 C-101.23583984 154.57592773 -101.23583984 154.57592773 -103 154 C-101.93987294 152.76878615 -100.87675995 151.54014315 -99.8125 150.3125 C-99.22082031 149.62800781 -98.62914062 148.94351563 -98.01953125 148.23828125 C-96.58721412 146.65081952 -95.08941462 145.12136499 -93.55078125 143.63671875 C-90.80326986 140.79664189 -88.57251718 137.76596519 -86.375 134.5 C-85.9934375 133.94441406 -85.611875 133.38882813 -85.21875 132.81640625 C-84.13037619 131.22137567 -83.06466449 129.61095301 -82 128 C-81.37351563 127.1234375 -80.74703125 126.246875 -80.1015625 125.34375 C-78.73393588 123.09256284 -78.73393588 123.09256284 -79.56640625 120.9296875 C-81.1914405 118.7423117 -82.94037827 116.98127589 -84.9375 115.125 C-90.94461468 109.24323442 -95.98097125 102.72356956 -101 96 C-102.17949219 94.42025391 -102.17949219 94.42025391 -103.3828125 92.80859375 C-123 65.50174216 -123 65.50174216 -123 54 C-123.66 53.67 -124.32 53.34 -125 53 C-125.66 52.01 -126.32 51.02 -127 50 C-126.34 50 -125.68 50 -125 50 C-125.26554688 49.10539062 -125.53109375 48.21078125 -125.8046875 47.2890625 C-126.90168511 43.53364731 -127.96150629 39.77200016 -129 36 C-129.22300781 35.19046875 -129.44601563 34.3809375 -129.67578125 33.546875 C-133.77125016 16.16457947 -133.88438748 -5.50737262 -124.6875 -21.24609375 C-118.75595154 -29.77269465 -111.07671094 -34.41572209 -100.96875 -36.3984375 C-65.38364166 -41.62323515 -27.46592354 -20.45523546 0 0 Z " fill="#010101" transform="translate(327,286)"/>
<path d="M0 0 C3.13324932 0.00315631 6.26554868 -0.02034945 9.39868164 -0.0456543 C41.55980565 -0.14779205 41.55980565 -0.14779205 52.79516602 10.10083008 C60.6132871 18.37980882 63.45586431 28.02674938 63.83813477 39.31567383 C62.69166615 50.5056852 58.8968508 61.2569578 50.83813477 69.31567383 C39.48132963 78.5082965 25.51721994 84.47545683 10.83813477 85.31567383 C9.25645508 85.41235352 9.25645508 85.41235352 7.64282227 85.51098633 C-10.70935136 86.09545046 -29.09852322 81.48089607 -43.16186523 69.31567383 C-51.8034742 60.28999335 -55.95584692 49.59794345 -56.23217773 37.14770508 C-55.83210245 27.29879301 -53.05219317 17.1445271 -46.07202148 9.84301758 C-32.68552119 -0.8607076 -16.21700641 -0.0341251 0 0 Z " fill="#010101" transform="translate(508.161865234375,686.684326171875)"/>
<path d="M0 0 C2.36450403 0.14459721 4.72908389 0.28758886 7.09384155 0.42797852 C8.54324223 0.51433796 9.99249978 0.60315462 11.44155884 0.69506836 C14.84507316 0.90091836 18.22197469 1.0104023 21.62988281 0.97265625 C24.49830648 0.99359911 26.62129797 1.08094763 29.3203125 1.875 C29.98063477 2.05804688 30.64095703 2.24109375 31.32128906 2.4296875 C31.99901367 2.61789062 32.67673828 2.80609375 33.375 3 C34.82860235 3.342489 36.28443577 3.67562611 37.7421875 4 C38.84566528 4.24568726 38.84566528 4.24568726 39.97143555 4.49633789 C40.72336182 4.66254639 41.47528809 4.82875488 42.25 5 C43.03866455 5.17587646 43.8273291 5.35175293 44.63989258 5.53295898 C48.77017102 6.44829501 52.90044759 7.30169472 57.0625 8.0625 C61.16508306 8.86456209 64.64706281 10.0963725 68.375 12 C68.705 12.66 69.035 13.32 69.375 14 C68.199375 14.2475 67.02375 14.495 65.8125 14.75 C63.99930572 15.16363494 62.18690556 15.5807559 60.375 16 C59.26125 16.24492187 58.1475 16.48984375 57 16.7421875 C42.29419161 20.26285773 28.28992445 26.57443549 17.73828125 37.73046875 C16.375 39 16.375 39 14.375 39 C14.375 39.66 14.375 40.32 14.375 41 C13.21380819 42.19534451 12.04652563 43.38529073 10.8515625 44.546875 C-7.52627638 62.63300215 -18.14644583 89.41461566 -24.8359375 113.796875 C-25.625 116 -25.625 116 -27.625 117 C-27.88716309 116.19256348 -28.14932617 115.38512695 -28.41943359 114.55322266 C-29.39491317 111.55861684 -30.37578401 108.56584774 -31.36035156 105.57421875 C-31.78537554 104.27903119 -32.20824274 102.98313379 -32.62890625 101.68652344 C-33.23390395 99.82301637 -33.84730813 97.96224511 -34.4609375 96.1015625 C-34.82751465 94.98088379 -35.1940918 93.86020508 -35.57177734 92.70556641 C-36.45384642 89.90286842 -36.45384642 89.90286842 -38.625 88 C-39.2513684 86.12089479 -39.85424229 84.23361157 -40.421875 82.3359375 C-41.90426508 78.22567408 -43.82057463 74.47454607 -45.875 70.625 C-46.27468994 69.87275146 -46.67437988 69.12050293 -47.08618164 68.34545898 C-50.32798321 62.34600831 -53.76788722 56.85711278 -58.625 52 C-59.48856769 50.81931893 -60.3413797 49.63074657 -61.1875 48.4375 C-74.83786725 30.31320856 -95.40012292 18.96456285 -117.6875 15.25 C-120.55685596 14.74865715 -120.55685596 14.74865715 -122.625 16 C-122.625 14.68 -122.625 13.36 -122.625 12 C-109.727943 8.21095505 -96.96474302 4.53135599 -83.66015625 2.5078125 C-80.7161745 2.16787368 -80.7161745 2.16787368 -78.625 1 C-75.89116227 0.78298091 -73.1759933 0.6210064 -70.4375 0.5 C-69.18175171 0.44017944 -69.18175171 0.44017944 -67.90063477 0.37915039 C-66.0897769 0.29383768 -64.27881692 0.21067156 -62.46777344 0.12939453 C-59.60568312 -0.00087925 -56.74429629 -0.14222741 -53.8828125 -0.28515625 C-51.9427299 -0.37805571 -50.00262603 -0.47051197 -48.0625 -0.5625 C-47.19149658 -0.60632813 -46.32049316 -0.65015625 -45.4230957 -0.6953125 C-30.23899943 -1.38216264 -15.15984936 -0.94848522 0 0 Z " fill="#020202" transform="translate(538.625,303)"/>
<path d="M0 0 C0.66 0.33 1.32 0.66 2 1 C-4.27 7.27 -10.54 13.54 -17 20 C-17 15.26122256 -13.89894052 12.94888166 -10.75 9.625 C-7.26586147 6.2992314 -3.64943887 3.14232082 0 0 Z " fill="#202020" transform="translate(605,461)"/>
<path d="M0 0 C-0.33 0.33 -0.66 0.66 -1 1 C-0.34 1.66 0.32 2.32 1 3 C0.05125 2.979375 -0.8975 2.95875 -1.875 2.9375 C-4.90666283 2.77448174 -4.90666283 2.77448174 -7 4 C-7 2.68 -7 1.36 -7 0 C-2.25 -1.125 -2.25 -1.125 0 0 Z " fill="#2C2B2A" transform="translate(423,315)"/>
<path d="M0 0 C0 0.99 0 1.98 0 3 C0.66 3.66 1.32 4.32 2 5 C-0.31 5.33 -2.62 5.66 -5 6 C-3.35 4.02 -1.7 2.04 0 0 Z " fill="#2B2B29" transform="translate(229,435)"/>
<path d="M0 0 C1.98 0 3.96 0 6 0 C6 0.33 6 0.66 6 1 C4.02 1 2.04 1 0 1 C0 0.67 0 0.34 0 0 Z " fill="#2D2C2C" transform="translate(600,319)"/>
<path d="M0 0 C0.66 0.66 1.32 1.32 2 2 C1.34 2 0.68 2 0 2 C0 1.34 0 0.68 0 0 Z " fill="#222121" transform="translate(411,533)"/>
<path d="" fill="#242322" transform="translate(0,0)"/>
<path d="M0 0 C2 1 2 1 2 1 Z " fill="#282525" transform="translate(584,775)"/>
<path d="M0 0 C2 1 2 1 2 1 Z " fill="#2A2828" transform="translate(433,774)"/>
<path d="M0 0 C2 1 2 1 2 1 Z " fill="#222121" transform="translate(363,758)"/>
<path d="M0 0 C2 1 2 1 2 1 Z " fill="#1F1E1F" transform="translate(346,755)"/>
<path d="" fill="#1D1D1C" transform="translate(0,0)"/>
<path d="" fill="#1F1F1E" transform="translate(0,0)"/>
<path d="M0 0 C2 1 2 1 2 1 Z " fill="#191918" transform="translate(272,723)"/>
<path d="M0 0 C2 1 2 1 2 1 Z " fill="#1F1C1C" transform="translate(611,637)"/>
<path d="" fill="#2C2A2A" transform="translate(0,0)"/>
<path d="" fill="#282627" transform="translate(0,0)"/>
<path d="M0 0 C2 1 2 1 2 1 Z " fill="#222020" transform="translate(586,613)"/>
<path d="M0 0 C2 1 2 1 2 1 Z " fill="#232222" transform="translate(584,612)"/>
<path d="M0 0 C2 1 2 1 2 1 Z " fill="#1E1E1D" transform="translate(609,578)"/>
<path d="M0 0 C2 1 2 1 2 1 Z " fill="#201E1E" transform="translate(606,506)"/>
<path d="M0 0 C2 1 2 1 2 1 Z " fill="#222222" transform="translate(417,506)"/>
<path d="" fill="#262523" transform="translate(0,0)"/>
<path d="M0 0 C2 1 2 1 2 1 Z " fill="#2E2C2B" transform="translate(604,313)"/>
<path d="" fill="#22211F" transform="translate(0,0)"/>
<path d="" fill="#181817" transform="translate(0,0)"/>
<path d="" fill="#232323" transform="translate(0,0)"/>
<path d="" fill="#1F1F1F" transform="translate(0,0)"/>
<path d="" fill="#1E1E1C" transform="translate(0,0)"/>
<path d="" fill="#252625" transform="translate(0,0)"/>
<path d="" fill="#2C292A" transform="translate(0,0)"/>
<path d="" fill="#282A29" transform="translate(0,0)"/>
<path d="" fill="#242122" transform="translate(0,0)"/>
<path d="" fill="#272625" transform="translate(0,0)"/>
<path d="" fill="#28282A" transform="translate(0,0)"/>
<path d="" fill="#282723" transform="translate(0,0)"/>
<path d="" fill="#2A2928" transform="translate(0,0)"/>
<path d="" fill="#2F2A28" transform="translate(0,0)"/>
<path d="" fill="#2C2B2B" transform="translate(0,0)"/>
<path d="" fill="#272727" transform="translate(0,0)"/>
<path d="" fill="#272726" transform="translate(0,0)"/>
<path d="" fill="#232223" transform="translate(0,0)"/>
<path d="" fill="#262425" transform="translate(0,0)"/>
<path d="" fill="#232422" transform="translate(0,0)"/>
<path d="" fill="#252524" transform="translate(0,0)"/>
<path d="" fill="#232322" transform="translate(0,0)"/>
<path d="" fill="#222022" transform="translate(0,0)"/>
<path d="" fill="#222221" transform="translate(0,0)"/>
<path d="" fill="#201F1F" transform="translate(0,0)"/>
<path d="" fill="#1E2120" transform="translate(0,0)"/>
<path d="" fill="#201B1E" transform="translate(0,0)"/>
<path d="" fill="#1D1B1A" transform="translate(0,0)"/>
<path d="" fill="#1D1A1B" transform="translate(0,0)"/>
<path d="" fill="#1E1E1D" transform="translate(0,0)"/>
<path d="" fill="#1E1D1C" transform="translate(0,0)"/>
<path d="" fill="#1E1D1E" transform="translate(0,0)"/>
<path d="" fill="#232322" transform="translate(0,0)"/>
<path d="" fill="#1B1A1A" transform="translate(0,0)"/>
<path d="" fill="#201E1D" transform="translate(0,0)"/>
<path d="" fill="#1C1B1A" transform="translate(0,0)"/>
<path d="" fill="#212121" transform="translate(0,0)"/>
<path d="" fill="#252522" transform="translate(0,0)"/>
<path d="" fill="#1A1818" transform="translate(0,0)"/>
<path d="" fill="#201C1C" transform="translate(0,0)"/>
<path d="" fill="#1A1A1A" transform="translate(0,0)"/>
<path d="" fill="#252324" transform="translate(0,0)"/>
<path d="" fill="#272724" transform="translate(0,0)"/>
<path d="" fill="#242222" transform="translate(0,0)"/>
<path d="" fill="#1B1B1D" transform="translate(0,0)"/>
<path d="" fill="#272628" transform="translate(0,0)"/>
<path d="" fill="#262623" transform="translate(0,0)"/>
<path d="" fill="#20201B" transform="translate(0,0)"/>
<path d="" fill="#242322" transform="translate(0,0)"/>
<path d="" fill="#1F1D1C" transform="translate(0,0)"/>
<path d="" fill="#242321" transform="translate(0,0)"/>
<path d="" fill="#1C1D1B" transform="translate(0,0)"/>
<path d="" fill="#1C1C19" transform="translate(0,0)"/>
<path d="" fill="#211D1C" transform="translate(0,0)"/>
<path d="" fill="#1F1F1C" transform="translate(0,0)"/>
<path d="" fill="#1B1A18" transform="translate(0,0)"/>
<path d="" fill="#1C1B1B" transform="translate(0,0)"/>
<path d="" fill="#1C1B1B" transform="translate(0,0)"/>
<path d="" fill="#1C1D1D" transform="translate(0,0)"/>
<path d="" fill="#232222" transform="translate(0,0)"/>
<path d="" fill="#1B1B1A" transform="translate(0,0)"/>
<path d="" fill="#1C1C1B" transform="translate(0,0)"/>
<path d="" fill="#1B1817" transform="translate(0,0)"/>
<path d="" fill="#1C1C1C" transform="translate(0,0)"/>
<path d="" fill="#222021" transform="translate(0,0)"/>
<path d="" fill="#1F1E1E" transform="translate(0,0)"/>
<path d="" fill="#232021" transform="translate(0,0)"/>
<path d="" fill="#1F1F1E" transform="translate(0,0)"/>
<path d="" fill="#1C1D1C" transform="translate(0,0)"/>
<path d="" fill="#242223" transform="translate(0,0)"/>
<path d="" fill="#252525" transform="translate(0,0)"/>
<path d="" fill="#201F1F" transform="translate(0,0)"/>
<path d="" fill="#1F1E1D" transform="translate(0,0)"/>
<path d="" fill="#1E1D1F" transform="translate(0,0)"/>
<path d="" fill="#201D1C" transform="translate(0,0)"/>
<path d="" fill="#211F1D" transform="translate(0,0)"/>
<path d="" fill="#1F1E1E" transform="translate(0,0)"/>
<path d="" fill="#20201F" transform="translate(0,0)"/>
<path d="" fill="#1C1918" transform="translate(0,0)"/>
<path d="" fill="#2A282B" transform="translate(0,0)"/>
<path d="" fill="#292628" transform="translate(0,0)"/>
<path d="" fill="#262525" transform="translate(0,0)"/>
<path d="" fill="#1F201F" transform="translate(0,0)"/>
<path d="" fill="#1E1E1D" transform="translate(0,0)"/>
<path d="" fill="#1F1E1D" transform="translate(0,0)"/>
<path d="" fill="#282626" transform="translate(0,0)"/>
<path d="" fill="#252324" transform="translate(0,0)"/>
<path d="" fill="#272626" transform="translate(0,0)"/>
<path d="" fill="#282A29" transform="translate(0,0)"/>
<path d="" fill="#222223" transform="translate(0,0)"/>
<path d="" fill="#262725" transform="translate(0,0)"/>
<path d="" fill="#282626" transform="translate(0,0)"/>
<path d="" fill="#2A292A" transform="translate(0,0)"/>
<path d="" fill="#292829" transform="translate(0,0)"/>
<path d="" fill="#21201F" transform="translate(0,0)"/>
<path d="" fill="#242421" transform="translate(0,0)"/>
<path d="" fill="#292728" transform="translate(0,0)"/>
<path d="" fill="#241E20" transform="translate(0,0)"/>
<path d="" fill="#212121" transform="translate(0,0)"/>
<path d="" fill="#232122" transform="translate(0,0)"/>
<path d="" fill="#232122" transform="translate(0,0)"/>
<path d="" fill="#282626" transform="translate(0,0)"/>
<path d="" fill="#232221" transform="translate(0,0)"/>
<path d="" fill="#242521" transform="translate(0,0)"/>
<path d="" fill="#252324" transform="translate(0,0)"/>
<path d="" fill="#1E1F1D" transform="translate(0,0)"/>
<path d="" fill="#242223" transform="translate(0,0)"/>
<path d="" fill="#191817" transform="translate(0,0)"/>
<path d="" fill="#1C1B1C" transform="translate(0,0)"/>
<path d="" fill="#1E1E1F" transform="translate(0,0)"/>
<path d="" fill="#1E1C1C" transform="translate(0,0)"/>
<path d="" fill="#1C1A1A" transform="translate(0,0)"/>
<path d="" fill="#1C1D1A" transform="translate(0,0)"/>
<path d="" fill="#242323" transform="translate(0,0)"/>
<path d="" fill="#211E1E" transform="translate(0,0)"/>
<path d="" fill="#1D1C1C" transform="translate(0,0)"/>
<path d="" fill="#1F1E1D" transform="translate(0,0)"/>
<path d="" fill="#1D1C1B" transform="translate(0,0)"/>
<path d="" fill="#161314" transform="translate(0,0)"/>
<path d="" fill="#1F1E1F" transform="translate(0,0)"/>
<path d="" fill="#201C1C" transform="translate(0,0)"/>
<path d="" fill="#1D1C1B" transform="translate(0,0)"/>
<path d="" fill="#201E1F" transform="translate(0,0)"/>
<path d="" fill="#201E1D" transform="translate(0,0)"/>
<path d="" fill="#1C1C1B" transform="translate(0,0)"/>
<path d="" fill="#201D1D" transform="translate(0,0)"/>
<path d="" fill="#242322" transform="translate(0,0)"/>
<path d="" fill="#202220" transform="translate(0,0)"/>
<path d="" fill="#20211D" transform="translate(0,0)"/>
<path d="" fill="#20201D" transform="translate(0,0)"/>
<path d="" fill="#252323" transform="translate(0,0)"/>
<path d="" fill="#2B2B28" transform="translate(0,0)"/>
<path d="" fill="#2A2829" transform="translate(0,0)"/>
<path d="" fill="#2B2827" transform="translate(0,0)"/>
<path d="" fill="#262522" transform="translate(0,0)"/>
<path d="" fill="#20211F" transform="translate(0,0)"/>
<path d="" fill="#292826" transform="translate(0,0)"/>
<path d="" fill="#222122" transform="translate(0,0)"/>
<path d="" fill="#21201F" transform="translate(0,0)"/>
<path d="" fill="#282625" transform="translate(0,0)"/>
<path d="" fill="#252222" transform="translate(0,0)"/>
<path d="" fill="#2B2928" transform="translate(0,0)"/>
<path d="" fill="#2A2929" transform="translate(0,0)"/>
<path d="" fill="#2E2C2B" transform="translate(0,0)"/>
<path d="" fill="#31302D" transform="translate(0,0)"/>
<path d="" fill="#252525" transform="translate(0,0)"/>
<path d="" fill="#292929" transform="translate(0,0)"/>
<path d="" fill="#312F2D" transform="translate(0,0)"/>
<path d="" fill="#303230" transform="translate(0,0)"/>
<path d="" fill="#302F2E" transform="translate(0,0)"/>
<path d="" fill="#333131" transform="translate(0,0)"/>
<path d="" fill="#353433" transform="translate(0,0)"/>
<path d="" fill="#373434" transform="translate(0,0)"/>
<path d="" fill="#323131" transform="translate(0,0)"/>
<path d="" fill="#242423" transform="translate(0,0)"/>
<path d="" fill="#262826" transform="translate(0,0)"/>
<path d="" fill="#272826" transform="translate(0,0)"/>
<path d="" fill="#242322" transform="translate(0,0)"/>
<path d="" fill="#232223" transform="translate(0,0)"/>
<path d="" fill="#21211E" transform="translate(0,0)"/>
<path d="" fill="#232422" transform="translate(0,0)"/>
<path d="" fill="#2A2B2A" transform="translate(0,0)"/>
<path d="" fill="#222123" transform="translate(0,0)"/>
<path d="" fill="#272725" transform="translate(0,0)"/>
<path d="" fill="#1D1B1A" transform="translate(0,0)"/>
<path d="" fill="#1C1C1C" transform="translate(0,0)"/>
<path d="" fill="#1E1D1C" transform="translate(0,0)"/>
<path d="" fill="#252624" transform="translate(0,0)"/>
<path d="" fill="#1A1818" transform="translate(0,0)"/>
<path d="" fill="#1E1E1C" transform="translate(0,0)"/>
<path d="" fill="#1D1C1C" transform="translate(0,0)"/>
<path d="" fill="#191A1A" transform="translate(0,0)"/>
<path d="" fill="#1F1E1C" transform="translate(0,0)"/>
<path d="" fill="#1F1E1E" transform="translate(0,0)"/>
<path d="" fill="#1B1B18" transform="translate(0,0)"/>
<path d="" fill="#201D1F" transform="translate(0,0)"/>
<path d="" fill="#1B1818" transform="translate(0,0)"/>
<path d="" fill="#1D1B1C" transform="translate(0,0)"/>
<path d="" fill="#23211F" transform="translate(0,0)"/>
<path d="" fill="#1F1E1B" transform="translate(0,0)"/>
<path d="" fill="#211E1E" transform="translate(0,0)"/>
<path d="" fill="#1E1F20" transform="translate(0,0)"/>
<path d="" fill="#201E1D" transform="translate(0,0)"/>
<path d="" fill="#1F1D1E" transform="translate(0,0)"/>
<path d="" fill="#20201D" transform="translate(0,0)"/>
<path d="" fill="#1D1E1C" transform="translate(0,0)"/>
<path d="" fill="#211E20" transform="translate(0,0)"/>
<path d="" fill="#1F201E" transform="translate(0,0)"/>
<path d="" fill="#1A1716" transform="translate(0,0)"/>
<path d="" fill="#201E1D" transform="translate(0,0)"/>
<path d="" fill="#20201F" transform="translate(0,0)"/>
<path d="" fill="#211F20" transform="translate(0,0)"/>
<path d="" fill="#1D1E1D" transform="translate(0,0)"/>
<path d="" fill="#201E1C" transform="translate(0,0)"/>
<path d="" fill="#212120" transform="translate(0,0)"/>
<path d="" fill="#21201F" transform="translate(0,0)"/>
<path d="" fill="#1E1F1E" transform="translate(0,0)"/>
<path d="" fill="#242425" transform="translate(0,0)"/>
<path d="" fill="#231F20" transform="translate(0,0)"/>
<path d="" fill="#1E1D1C" transform="translate(0,0)"/>
<path d="" fill="#201E1E" transform="translate(0,0)"/>
<path d="" fill="#242223" transform="translate(0,0)"/>
<path d="" fill="#201F1D" transform="translate(0,0)"/>
<path d="" fill="#201C1D" transform="translate(0,0)"/>
<path d="" fill="#222222" transform="translate(0,0)"/>
<path d="" fill="#232020" transform="translate(0,0)"/>
<path d="" fill="#262324" transform="translate(0,0)"/>
<path d="" fill="#242424" transform="translate(0,0)"/>
<path d="" fill="#201F21" transform="translate(0,0)"/>
<path d="" fill="#282626" transform="translate(0,0)"/>
<path d="" fill="#252323" transform="translate(0,0)"/>
<path d="" fill="#262422" transform="translate(0,0)"/>
<path d="" fill="#242221" transform="translate(0,0)"/>
<path d="" fill="#232221" transform="translate(0,0)"/>
<path d="" fill="#2A2A28" transform="translate(0,0)"/>
<path d="" fill="#222220" transform="translate(0,0)"/>
<path d="" fill="#272626" transform="translate(0,0)"/>
<path d="" fill="#222223" transform="translate(0,0)"/>
<path d="" fill="#272524" transform="translate(0,0)"/>
<path d="" fill="#2A2727" transform="translate(0,0)"/>
<path d="" fill="#221F21" transform="translate(0,0)"/>
<path d="" fill="#222223" transform="translate(0,0)"/>
<path d="" fill="#2C2B2A" transform="translate(0,0)"/>
<path d="" fill="#2D2B2A" transform="translate(0,0)"/>
<path d="" fill="#262625" transform="translate(0,0)"/>
<path d="" fill="#2B2928" transform="translate(0,0)"/>
<path d="" fill="#2A2726" transform="translate(0,0)"/>
<path d="" fill="#272424" transform="translate(0,0)"/>
<path d="" fill="#272625" transform="translate(0,0)"/>
<path d="" fill="#282724" transform="translate(0,0)"/>
<path d="" fill="#282926" transform="translate(0,0)"/>
<path d="" fill="#282624" transform="translate(0,0)"/>
<path d="" fill="#211F1E" transform="translate(0,0)"/>
<path d="" fill="#211F1F" transform="translate(0,0)"/>
<path d="" fill="#22201F" transform="translate(0,0)"/>
<path d="" fill="#202020" transform="translate(0,0)"/>
<path d="" fill="#252322" transform="translate(0,0)"/>
<path d="" fill="#242523" transform="translate(0,0)"/>
<path d="" fill="#1F1F1F" transform="translate(0,0)"/>
<path d="" fill="#262425" transform="translate(0,0)"/>
<path d="" fill="#23201E" transform="translate(0,0)"/>
<path d="" fill="#262725" transform="translate(0,0)"/>
<path d="" fill="#1D1E1D" transform="translate(0,0)"/>
<path d="" fill="#201D1F" transform="translate(0,0)"/>
<path d="" fill="#272727" transform="translate(0,0)"/>
<path d="" fill="#1D1D1B" transform="translate(0,0)"/>
<path d="" fill="#1C1A1B" transform="translate(0,0)"/>
<path d="" fill="#2B2928" transform="translate(0,0)"/>
<path d="" fill="#232021" transform="translate(0,0)"/>
<path d="" fill="#262525" transform="translate(0,0)"/>
<path d="" fill="#21201F" transform="translate(0,0)"/>
<path d="" fill="#242120" transform="translate(0,0)"/>
<path d="" fill="#202021" transform="translate(0,0)"/>
<path d="" fill="#282828" transform="translate(0,0)"/>
<path d="" fill="#252120" transform="translate(0,0)"/>
<path d="" fill="#252422" transform="translate(0,0)"/>
<path d="" fill="#262623" transform="translate(0,0)"/>
<path d="" fill="#2D2C2A" transform="translate(0,0)"/>
<path d="" fill="#282625" transform="translate(0,0)"/>
<path d="" fill="#272724" transform="translate(0,0)"/>
<path d="" fill="#2B272A" transform="translate(0,0)"/>
<path d="" fill="#272627" transform="translate(0,0)"/>
<path d="" fill="#252424" transform="translate(0,0)"/>
</svg>
