<?xml version="1.0" encoding="UTF-8"?>
<svg version="1.1" xmlns="http://www.w3.org/2000/svg" width="256" height="256">
<path d="M0 0 C0 3.63 0 7.26 0 11 C1.423125 10.9071875 1.423125 10.9071875 2.875 10.8125 C15.4278731 10.88827187 26.39351378 18.4652345 35 27 C36.84583847 29.01504033 38.63680144 31.06556427 40.41015625 33.14453125 C44.81321179 38.28323243 49.13658531 42.72899728 56 44 C54.46005921 53.21854969 44.12239486 61.69180005 37 67 C23.70096163 75.81748894 8.47015809 78.16945674 -7 81 C-7.33 80.34 -7.66 79.68 -8 79 C-3.69235561 72.34273139 3.57714701 69.14826178 10.5 65.75 C13.96047153 64.25034698 13.96047153 64.25034698 16 62 C15.45472656 61.69449219 14.90945312 61.38898438 14.34765625 61.07421875 C8.32826131 57.42142353 4.32287895 53.15215951 0.04296875 47.5859375 C-3.88518253 42.44084806 -3.88518253 42.44084806 -9.75 40.25 C-10.8225 40.1675 -11.895 40.085 -13 40 C-13.66 40.99 -14.32 41.98 -15 43 C-15.99 43 -16.98 43 -18 43 C-18.61648129 28.84376288 -16.46734749 15.92970304 -7.125 4.7578125 C-2.53915663 0 -2.53915663 0 0 0 Z M-3 22 C-3.33333333 25 -3.33333333 25 -3 28 C-1.11499729 30.31563087 -1.11499729 30.31563087 2 30.25 C5.11499729 30.31563087 5.11499729 30.31563087 7 28 C7.41666667 25 7.41666667 25 7 22 C3.19906828 19.46604552 0.41328319 18.58671681 -3 22 Z " fill="#F4F5F5" transform="translate(153,114)"/>
<path d="M0 0 C4.86739068 0.71547391 6.96860723 3.73831016 10.03515625 7.3359375 C18.11229183 18.28744141 19.36724002 29.79976163 19 43 C18.01 43 17.02 43 16 43 C15.5875 42.484375 15.175 41.96875 14.75 41.4375 C12.95009306 39.63971699 12.95009306 39.63971699 9.68359375 40.08203125 C5.18515121 41.20306412 4.04603781 42.57910901 1.3125 46.25 C0.22388672 47.68085938 0.22388672 47.68085938 -0.88671875 49.140625 C-1.58410156 50.08421875 -2.28148437 51.0278125 -3 52 C-6.36975971 56.47797896 -9.03896648 58.51948324 -14 61 C-14.66 61 -15.32 61 -16 61 C-12.80821787 64.63530521 -9.56735784 66.32424384 -5.1875 68.3125 C0.41936811 70.96620437 5.36963124 73.82740691 9 79 C9 79.66 9 80.32 9 81 C4.91242864 80.29344448 0.83108653 79.55552391 -3.25 78.8125 C-4.95929688 78.51762695 -4.95929688 78.51762695 -6.703125 78.21679688 C-26.42110744 74.57569216 -41.53650312 64.7387817 -53.8203125 48.9453125 C-55 47 -55 47 -55 44 C-53.5459375 43.7525 -53.5459375 43.7525 -52.0625 43.5 C-45.11409932 41.50672142 -40.10828876 35.39979081 -35.5625 30.0625 C-27.50067021 20.64776544 -18.5990732 12.97752443 -6 11 C-3.66698014 10.96175377 -1.33288492 10.95425716 1 11 C1.12469099 5.42169984 1.12469099 5.42169984 0 0 Z M-4.75 21.1875 C-6.4200394 23.60905713 -6.36962413 25.11693182 -6 28 C-4.11499729 30.31563087 -4.11499729 30.31563087 -1 30.25 C2.11499729 30.31563087 2.11499729 30.31563087 4 28 C4.41666667 25 4.41666667 25 4 22 C0.79877177 19.86584784 -1.32288984 18.86196096 -4.75 21.1875 Z " fill="#F3F4F4" transform="translate(102,114)"/>
<path d="M0 0 C2.97361086 2.21563162 4.36959793 3.73919585 6 7 C7.1296613 16.90874341 5.11500671 25.49065218 -0.890625 33.53125 C-2.53456525 35.42913225 -4.20713347 37.24330081 -6 39 C-4.79367548 42.43338516 -3.61522816 44.50364585 -1 47 C-1 47.66 -1 48.32 -1 49 C-9.28893073 48.57492663 -15.14358224 43.18305908 -20.5 37.3125 C-24.47012676 32.72247625 -28.28523191 28.00572891 -32.0546875 23.25 C-33.98055544 20.82039747 -33.98055544 20.82039747 -37 19 C-36.15640636 13.24822517 -31.38770237 10.32750064 -27 7 C-18.06722749 1.40950307 -10.66766408 -1.34074467 0 0 Z " fill="#F2F2F2" transform="translate(202,62)"/>
<path d="M0 0 C8.61747341 3.26029999 16.26402689 8.35092045 22.30078125 15.31640625 C22.30078125 18.31640625 22.30078125 18.31640625 20.8671875 19.75390625 C20.20589844 20.26953125 19.54460937 20.78515625 18.86328125 21.31640625 C15.42837724 24.18285783 12.64847544 27.19029947 9.86328125 30.69140625 C-2.09931534 45.66527715 -2.09931534 45.66527715 -9.69921875 48.31640625 C-11.01921875 48.31640625 -12.33921875 48.31640625 -13.69921875 48.31640625 C-12.20047748 45.20363593 -10.48757238 42.27086444 -8.69921875 39.31640625 C-9.2303125 38.63835937 -9.76140625 37.9603125 -10.30859375 37.26171875 C-17.21183445 28.16657315 -21.48742563 20.6793579 -21.09765625 9.03125 C-20.52222981 5.11045221 -19.36542293 3.21786374 -16.69921875 0.31640625 C-11.88227205 -2.0920671 -5.08079815 -1.28674338 0 0 Z " fill="#F4F4F5" transform="translate(68.69921875,62.68359375)"/>
<path d="M0 0 C0 0.99 0 1.98 0 3 C-0.58007812 3.08636719 -1.16015625 3.17273438 -1.7578125 3.26171875 C-8.21562232 4.423272 -12.14077861 6.39671223 -16.3359375 11.68359375 C-20.18114557 17.28827581 -22.07098157 23.53401644 -24 30 C-24.66 30 -25.32 30 -26 30 C-26.23074219 29.2265625 -26.46148437 28.453125 -26.69921875 27.65625 C-29.78497466 17.80134575 -32.88623133 10.36005176 -41.9375 4.8125 C-44.5831958 3.7702562 -47.19060228 3.38309969 -50 3 C-50 2.01 -50 1.02 -50 0 C-33.63894564 -5.03173625 -16.33140173 -5.60840794 0 0 Z " fill="#E4E5E5" transform="translate(153,78)"/>
<path d="M0 0 C2.52674471 3.64808112 2.13387624 6.64522789 1.54296875 10.87890625 C0.58998958 14.60169537 -1.58919274 16.11421919 -4.7109375 18.07421875 C-10.21101987 20.2986548 -17.79125081 20.0121908 -23.40234375 18.2421875 C-25.86374567 16.92041987 -27.70335517 15.37403044 -29.4375 13.1875 C-30.5524467 8.85159616 -30.57693464 5.29810294 -28.75 1.1875 C-26.26818721 -1.91476599 -24.26632965 -2.65175935 -20.5 -3.6875 C-13.33878908 -4.32689383 -5.92932166 -4.48038864 0 0 Z " fill="#F1F2F2" transform="translate(142,174)"/>
<path d="M0 0 C0 0.33 0 0.66 0 1 C-1.62808594 1.02126953 -1.62808594 1.02126953 -3.2890625 1.04296875 C-4.73441613 1.08989582 -6.17972731 1.13814305 -7.625 1.1875 C-8.69427734 1.19620117 -8.69427734 1.19620117 -9.78515625 1.20507812 C-13.67898119 1.36583237 -16.32950309 1.84805012 -19.46875 4.25 C-22.06390354 7.06942607 -22.7635779 8.07985967 -22.875 11.8125 C-22.91367188 12.60269531 -22.95234375 13.39289063 -22.9921875 14.20703125 C-22.99476562 14.79871094 -22.99734375 15.39039063 -23 16 C-25 14 -25 14 -25.3125 10.6875 C-24.98224889 6.79053691 -24.42016634 5.02520792 -22 2 C-15.5253023 -2.46530876 -7.34032036 -0.77204017 0 0 Z " fill="#A6A7A7" transform="translate(137,171)"/>
<path d="M0 0 C1.875 0.3125 1.875 0.3125 4 1 C4.66 1.99 5.32 2.98 6 4 C5.34 4 4.68 4 4 4 C3.67 6.97 3.34 9.94 3 13 C2.10796875 13.04898438 1.2159375 13.09796875 0.296875 13.1484375 C-0.87359375 13.22320312 -2.0440625 13.29796875 -3.25 13.375 C-4.99023438 13.47941406 -4.99023438 13.47941406 -6.765625 13.5859375 C-9.74778538 13.96771166 -11.41725924 14.59123231 -14 16 C-16.25 15.625 -16.25 15.625 -18 15 C-11.38862651 12.01840019 -6.34829742 10.85591574 1 11 C1.12469099 5.42169984 1.12469099 5.42169984 0 0 Z " fill="#A0A1A2" transform="translate(102,114)"/>
<path d="M0 0 C0.66 0.33 1.32 0.66 2 1 C1.01 2.32 0.02 3.64 -1 5 C3.62 5 8.24 5 13 5 C13 5.33 13 5.66 13 6 C6.07 7.32 -0.86 8.64 -8 10 C-5.76833482 4.42083705 -4.53031884 3.44698173 0 0 Z " fill="#B1B2B2" transform="translate(153,185)"/>
<path d="M0 0 C0 3.63 0 7.26 0 11 C1.423125 10.9071875 1.423125 10.9071875 2.875 10.8125 C7.84327831 10.78189459 12.3383902 12.42424457 17 14 C14 15 14 15 11 14 C8.77425665 13.77548542 6.54418481 13.59217122 4.3125 13.4375 C3.13300781 13.35371094 1.95351562 13.26992187 0.73828125 13.18359375 C-0.16535156 13.12300781 -1.06898438 13.06242187 -2 13 C-2.07347656 12.04287109 -2.07347656 12.04287109 -2.1484375 11.06640625 C-2.22320312 10.24011719 -2.29796875 9.41382812 -2.375 8.5625 C-2.44460937 7.73878906 -2.51421875 6.91507812 -2.5859375 6.06640625 C-2.72257813 5.38449219 -2.85921875 4.70257813 -3 4 C-3.66 3.67 -4.32 3.34 -5 3 C-2.25 0 -2.25 0 0 0 Z " fill="#959697" transform="translate(153,114)"/>
<path d="M0 0 C0.66 0.33 1.32 0.66 2 1 C0.59106853 2.63171123 -0.82745958 4.25513945 -2.25 5.875 C-3.03890625 6.77992188 -3.8278125 7.68484375 -4.640625 8.6171875 C-6.74691403 10.74439993 -8.25651526 11.90512306 -11 13 C-11 13.66 -11 14.32 -11 15 C-11.66 14.67 -12.32 14.34 -13 14 C-8.83295817 9.14256071 -4.58155004 4.46980492 0 0 Z " fill="#D0D2D3" transform="translate(76,134)"/>
<path d="M0 0 C2.37109375 1.02734375 2.37109375 1.02734375 4 2 C3.05898437 1.94199219 2.11796875 1.88398437 1.1484375 1.82421875 C-6.90594484 1.18492183 -6.90594484 1.18492183 -13.875 4.5 C-14.57625 5.325 -15.2775 6.15 -16 7 C-16.33 6.34 -16.66 5.68 -17 5 C-12.61553874 -1.26351609 -7.23403553 -0.94530038 0 0 Z " fill="#ACADAD" transform="translate(66,62)"/>
<path d="M0 0 C0 3.3 0 6.6 0 10 C-0.33 10 -0.66 10 -1 10 C-1.33 7.69 -1.66 5.38 -2 3 C-4.62187494 4.04874998 -5.79371361 4.64931313 -7.25 7.125 C-7.4975 7.74375 -7.745 8.3625 -8 9 C-8 5.0480185 -6.62823828 3.85351584 -4 1 C-1 0 -1 0 0 0 Z " fill="#C7C8C9" transform="translate(151,117)"/>
<path d="M0 0 C0.33 0.99 0.66 1.98 1 3 C1.99 3.33 2.98 3.66 4 4 C0.91190305 5.76462683 -0.23312136 6 -4 6 C-2.84826645 3.53199953 -1.95216435 1.95216435 0 0 Z " fill="#ADAFAF" transform="translate(59,105)"/>
<path d="M0 0 C0.33 0 0.66 0 1 0 C1.04898438 0.71027344 1.09796875 1.42054688 1.1484375 2.15234375 C1.22320312 3.07144531 1.29796875 3.99054688 1.375 4.9375 C1.44460937 5.85402344 1.51421875 6.77054688 1.5859375 7.71484375 C1.72257813 8.46894531 1.85921875 9.22304687 2 10 C2.66 10.33 3.32 10.66 4 11 C3.67 11.66 3.34 12.32 3 13 C2.01 13 1.02 13 0 13 C0 8.71 0 4.42 0 0 Z " fill="#9A9A9B" transform="translate(135,144)"/>
<path d="M0 0 C0.598125 0.763125 1.19625 1.52625 1.8125 2.3125 C3.84004112 4.91335259 3.84004112 4.91335259 5.75 6.6875 C7 8 7 8 7 10 C4.03 9.505 4.03 9.505 1 9 C1.66 8.34 2.32 7.68 3 7 C2.505 6.401875 2.01 5.80375 1.5 5.1875 C0 3 0 3 0 0 Z " fill="#B5B6B6" transform="translate(194,101)"/>
<path d="M0 0 C2 1.375 2 1.375 4 3 C4 3.66 4 4.32 4 5 C-0.455 4.01 -0.455 4.01 -5 3 C-5 2.67 -5 2.34 -5 2 C-3.35 2 -1.7 2 0 2 C0 1.34 0 0.68 0 0 Z " fill="#B6B6B6" transform="translate(107,190)"/>
</svg>
